# xmcd
#
# Track frame offsets:
#	150
#	14956
#	30903
#	44877
#	59695
#	79853
#	93348
#	108097
#	121499
#	143243
#
# Disc length: 2161 seconds
#
# Revision: 1
# Processed by: cddbd v1.5.2PL0 Copyright (c) Steve Scherf et al.
# Submitted via: audiograbber 1.83.01
#
DISCID=8b086f0a
DTITLE=Wes St. John - Patch Pride
DYEAR=1900
DGENRE=county
TTITLE0=Patch Pride
TTITLE1=Bein A Worm
TTITLE2=The Ballad Of Saide McGuinn
TTITLE3=The Hell Fighters
TTITLE4=An Olfields Man's Wife
TTITLE5=Olfield Family Man
TTITLE6=Did You Think
TTITLE7=That's Why I I Love To Work In The Oilfield
TTITLE8=The Rathole Crew
TTITLE9=Burnin That Rod
EXTD=
EXTT0=
EXTT1=
EXTT2=
EXTT3=
EXTT4=
EXTT5=
EXTT6=
EXTT7=
EXTT8=
EXTT9=
PLAYORDER=
